HIERARCHY
ROOT Hips
{
	OFFSET 0.000000 0.000000 0.000000
	CHANNELS 6 Xposition Yposition Zposition Zrotation Yrotation Xrotation 
	JOINT LHipJoint
	{
		OFFSET 0.000000 0.000000 0.000000
		CHANNELS 3 Zrotation Yrotation Xrotation
		JOINT LeftUpLeg
		{
			OFFSET 8.178360 -10.767780 5.035740
			CHANNELS 3 Zrotation Yrotation Xrotation
			JOINT LeftLeg
			{
				OFFSET 14.688660 -40.356780 0.000000
				CHANNELS 3 Zrotation Yrotation Xrotation
				JOINT LeftFoot
				{
					OFFSET 15.373200 -42.237540 0.000000
					CHANNELS 3 Zrotation Yrotation Xrotation
					JOINT LeftToeBase
					{
						OFFSET 0.945840 -2.598660 13.935300
						CHANNELS 3 Zrotation Yrotation Xrotation
						End Site
						{
							OFFSET 0.000000 0.000000 0.000000
						}
					}
				}
			}
		}
	}
	JOINT RHipJoint
	{
		OFFSET 0.000000 0.000000 0.000000
		CHANNELS 3 Zrotation Yrotation Xrotation
		JOINT RightUpLeg
		{
			OFFSET -7.833120 -10.767780 5.035740
			CHANNELS 3 Zrotation Yrotation Xrotation
			JOINT RightLeg
			{
				OFFSET -15.255180 -41.913300 0.000000
				CHANNELS 3 Zrotation Yrotation Xrotation
				JOINT RightFoot
				{
					OFFSET -15.409560 -42.337380 0.000000
					CHANNELS 3 Zrotation Yrotation Xrotation
					JOINT RightToeBase
					{
						OFFSET -0.988380 -2.715540 14.178900
						CHANNELS 3 Zrotation Yrotation Xrotation
						End Site
						{
							OFFSET 0.000000 0.000000 0.000000
						}
					}
				}
			}
		}
	}
	JOINT LowerBack
	{
		OFFSET 0.000000 0.000000 0.000000
		CHANNELS 3 Zrotation Yrotation Xrotation
		JOINT Spine
		{
			OFFSET 0.169620 12.213540 -1.160280
			CHANNELS 3 Zrotation Yrotation Xrotation
			JOINT Spine1
			{
				OFFSET 0.340320 12.293100 -0.256500
				CHANNELS 3 Zrotation Yrotation Xrotation
				JOINT Neck
				{
					OFFSET 0.000000 0.000000 0.000000
					CHANNELS 3 Zrotation Yrotation Xrotation
					JOINT Neck1
					{
						OFFSET -0.325020 10.477440 1.032120
						CHANNELS 3 Zrotation Yrotation Xrotation
						JOINT Head
						{
							OFFSET 0.624420 10.568160 -0.743820
							CHANNELS 3 Zrotation Yrotation Xrotation
							End Site
							{
								OFFSET 0.000000 0.000000 0.000000
							}
						}
					}
				}
				JOINT LeftShoulder
				{
					OFFSET 0.000000 0.000000 0.000000
					CHANNELS 3 Zrotation Yrotation Xrotation
					JOINT LeftArm
					{
						OFFSET 20.174460 7.205340 -1.867260
						CHANNELS 3 Zrotation Yrotation Xrotation
						JOINT LeftForeArm
						{
							OFFSET 29.898000 -0.000000 -0.000000
							CHANNELS 3 Zrotation Yrotation Xrotation
							JOINT LeftHand
							{
								OFFSET 20.901360 -0.000000 -0.000000
								CHANNELS 3 Zrotation Yrotation Xrotation
								JOINT LeftFingerBase
								{
									OFFSET 0.000000 0.000000 0.000000
									CHANNELS 3 Zrotation Yrotation Xrotation
									JOINT LeftHandIndex1
									{
										OFFSET 4.291560 -0.000000 -0.000000
										CHANNELS 3 Zrotation Yrotation Xrotation
										End Site
										{
											OFFSET 0.000000 0.000000 0.000000
										}
									}
								}
								JOINT LThumb
								{
									OFFSET 0.000000 0.000000 0.000000
									CHANNELS 3 Zrotation Yrotation Xrotation
									End Site
									{
										OFFSET 0.000000 0.000000 0.000000
									}
								}
							}
						}
					}
				}
				JOINT RightShoulder
				{
					OFFSET 0.000000 0.000000 0.000000
					CHANNELS 3 Zrotation Yrotation Xrotation
					JOINT RightArm
					{
						OFFSET -18.819600 8.244300 -2.427900
						CHANNELS 3 Zrotation Yrotation Xrotation
						JOINT RightForeArm
						{
							OFFSET -31.451400 -0.000000 -0.000000
							CHANNELS 3 Zrotation Yrotation Xrotation
							JOINT RightHand
							{
								OFFSET -20.665020 -0.000000 -0.000000
								CHANNELS 3 Zrotation Yrotation Xrotation
								JOINT RightFingerBase
								{
									OFFSET 0.000000 0.000000 0.000000
									CHANNELS 3 Zrotation Yrotation Xrotation
									JOINT RightHandIndex1
									{
										OFFSET -3.735180 -0.000000 -0.000000
										CHANNELS 3 Zrotation Yrotation Xrotation
										End Site
										{
											OFFSET 0.000000 0.000000 0.000000
										}
									}
								}
								JOINT RThumb
								{
									OFFSET 0.000000 0.000000 0.000000
									CHANNELS 3 Zrotation Yrotation Xrotation
									End Site
									{
										OFFSET 0.000000 0.000000 0.000000
									}
								}
							}
						}
					}
				}
			}
		}
	}
}
MOTION
Frames:	12
Frame Time:	0.0333333
33.982830 109.076340 64.951164 177.152925 53.788214 176.006884 -3.651448 1.236846 2.762292 -25.204065 -5.693034 -5.317170 1.147417 9.031440 28.266022 0.807583 -12.490932 10.343880 0.099800 2.037600 5.609600 0.320654 -0.910982 0.684166 10.329243 5.133680 -22.115439 -7.283305 -15.659258 51.014041 -0.266762 -0.183779 -0.817229 -0.933000 6.152900 -17.228600 1.044908 4.322565 9.994108 -0.255661 6.141183 2.742957 -4.853204 3.387271 -1.272368 -4.581424 12.080177 -11.359174 3.973311 25.692185 37.861851 7.189400 10.029400 19.895600 -6.069458 -2.415412 -1.137796 -81.698470 -3.373885 28.703290 19.441093 -27.070680 -5.821178 -1.051455 -2.573649 0.171394 19.727041 22.961683 9.291800 -7.125000 0.000000 0.000000 -9.837600 56.763300 -2.855400 5.299280 0.360869 -1.376897 83.454964 -5.721079 14.203052 -17.559808 25.994796 -4.408644 0.367908 0.074661 4.337313 -13.792956 3.485514 -0.850600 7.125000 0.000000 0.000000 9.456600 -26.474500 4.304200 
32.119038 109.305396 65.408670 176.380612 56.666043 175.278583 -3.699423 1.164550 2.763517 -25.668859 -3.527637 -6.856223 0.977900 8.766070 27.348576 0.811107 -11.719904 10.270674 0.023200 0.982900 2.701800 0.199835 -0.962305 0.734018 10.459993 3.525003 -20.657819 -8.888099 -16.683793 56.450961 -0.065970 -1.139393 0.006028 -0.587700 4.908200 -13.647000 1.088088 4.980475 9.233650 -0.485139 6.969873 2.522658 -5.441055 3.840865 -1.238724 -4.296401 12.234720 -11.328460 3.761716 25.884731 37.856420 7.077100 10.119900 19.974700 -6.114644 -2.231565 -1.219146 -82.368598 -0.273120 24.573696 19.033727 -26.673900 -5.564164 -1.115091 -2.569649 1.681523 19.872785 23.153131 9.433100 -7.125000 0.000000 0.000000 -9.790200 57.014800 -2.901100 5.291043 0.248221 -1.381370 83.426664 -5.077964 15.589855 -17.547898 25.993785 -4.413423 0.345495 0.041844 5.326683 -13.373480 4.145113 -0.990700 7.125000 0.000000 0.000000 9.738300 -25.780600 4.596400 
30.271524 109.547712 65.854728 175.192098 59.138855 174.493739 -3.762280 1.094099 2.744205 -26.385944 -1.760072 -8.273380 0.709619 8.309085 25.887016 0.832163 -11.493314 12.217112 0.134100 2.360200 6.502200 0.126139 -1.011124 0.802869 10.366241 1.691493 -18.621337 -10.015400 -17.255991 60.137428 -0.148782 -0.642065 0.756125 -0.426200 4.190100 -11.612000 0.795941 5.544879 8.237992 -0.706750 7.651205 2.260108 -5.791659 4.208601 -1.166175 -4.142721 12.278597 -11.611252 3.820211 25.964752 38.048497 7.153400 10.132300 20.234600 -6.191742 -2.068403 -1.283484 -82.807631 2.223559 21.134889 17.982222 -25.437392 -4.946598 -1.305726 -2.516041 2.228508 21.471882 22.495900 10.038800 -7.125000 0.000000 0.000000 -7.587500 56.670400 -2.179200 5.296939 0.163552 -1.387127 83.131230 -4.157820 16.806009 -17.688565 26.190308 -4.491612 0.321616 0.034118 5.795664 -12.839879 4.345096 -0.997500 7.125000 0.000000 0.000000 10.140200 -25.578100 4.840400 
28.381212 109.781592 66.380352 175.874431 61.171078 175.414396 -3.848814 1.010851 2.707519 -26.045773 -0.402011 -9.827741 0.496140 7.983276 24.760018 0.855416 -10.761625 11.979742 0.024800 1.017100 2.795900 0.110919 -1.081120 0.902556 11.609173 -0.342102 -15.842974 -10.358131 -17.338579 61.315672 -0.535826 1.685731 2.291537 -0.388400 4.002100 -11.082500 1.337783 5.945627 7.577743 -0.692097 8.174614 1.879125 -6.166043 4.466749 -1.472363 -3.745277 12.475503 -11.363496 3.380178 26.215003 37.863650 6.883500 10.264600 20.215700 -6.256221 -1.936624 -1.336897 -83.196796 4.739397 18.498966 16.736209 -23.891970 -4.266381 -1.265426 -2.642447 2.386335 20.203627 23.637566 9.841200 -7.125000 0.000000 0.000000 -9.584600 57.681400 -2.993900 5.303263 0.060814 -1.403770 82.697403 -3.269923 17.519732 -17.927943 26.496509 -4.609536 0.319121 0.037707 6.129837 -12.853132 4.173411 -0.957000 7.125000 0.000000 0.000000 10.145800 -25.756600 4.800300 
26.443278 109.893708 67.025928 176.115880 62.861517 175.826417 -3.904751 0.938737 2.595568 -25.915660 0.002909 -11.183807 0.357949 7.841330 24.126082 0.803742 -8.025759 13.230113 1.106200 6.682500 18.778000 0.140329 -1.152884 1.013603 12.792674 -2.653577 -12.507451 -9.960572 -17.020288 60.065262 -0.828629 3.634382 4.106677 -0.727900 5.451300 -15.200300 1.453517 6.321062 7.000404 -0.695617 8.657412 1.765473 -6.278455 4.725580 -1.350342 -3.909574 12.438073 -11.741022 3.435490 25.965492 37.636624 6.903800 10.130000 20.152100 -6.296070 -1.785727 -1.389821 -83.713094 6.693748 15.338454 15.886919 -22.824402 -3.808707 -1.486878 -2.497616 4.126489 21.752454 22.461264 10.215700 -7.125000 0.000000 0.000000 -7.179300 56.737800 -2.072900 5.316112 0.002831 -1.393947 82.397746 -1.764835 17.251125 -18.282341 26.936291 -4.775098 0.345121 0.036423 5.609996 -13.602194 4.257691 -1.036600 7.125000 0.000000 0.000000 9.559000 -25.659300 4.537000 
24.346212 109.831020 67.726356 177.266978 64.167109 177.155558 -3.935042 0.821305 2.454922 -25.401311 0.116692 -12.980283 0.340065 7.923991 24.240456 0.843785 -8.497147 12.703044 0.305200 3.551800 9.819000 0.220617 -1.211848 1.151550 14.544339 -4.721705 -9.006714 -8.926738 -16.296869 56.661042 -1.116558 5.770570 6.040758 -0.949300 6.205000 -17.380300 2.327121 6.349956 6.828632 -0.853411 8.758348 1.495188 -7.157886 4.788881 -1.573170 -3.760991 12.621574 -11.747547 3.787543 25.714581 37.237381 6.942200 10.114100 19.798700 -6.412742 -1.662182 -1.401993 -83.269460 8.005260 13.229438 14.355328 -20.741650 -3.051469 -1.667959 -2.435651 5.891558 22.228252 22.474886 10.495400 -7.125000 0.000000 0.000000 -6.553400 56.857300 -1.909900 5.309385 -0.009359 -1.386377 82.628200 -0.370309 17.018374 -18.514055 27.221247 -4.884416 0.366780 0.025165 5.537684 -14.297471 4.411655 -1.134700 7.125000 0.000000 0.000000 9.010900 -25.481700 4.308200 
22.119552 109.699614 68.553972 177.899494 65.431518 178.310165 -3.940741 0.661631 2.236236 -25.107646 0.314562 -15.238757 0.338200 8.065033 24.477108 0.872267 -8.378026 12.829380 0.286900 3.444900 9.519900 0.335395 -1.218635 1.278485 16.450487 -5.745099 -5.604410 -7.429413 -15.152594 51.443870 -1.413639 8.331218 6.755410 -1.485600 7.700500 -21.808200 3.097319 6.816736 5.973038 -1.071739 9.470507 1.688393 -7.933539 5.231438 -0.456672 -3.909261 12.368112 -12.515600 3.985882 24.954996 36.886481 6.996200 9.789100 19.682500 -6.515948 -1.577623 -1.365010 -82.686059 7.757615 12.616411 13.275113 -19.186461 -2.562345 -1.741777 -2.376500 7.396696 21.803405 22.424904 10.268400 -7.125000 0.000000 0.000000 -6.970700 56.697400 -2.005400 5.341198 0.007222 -1.328940 82.600075 2.012317 16.247735 -18.779203 27.558343 -5.008872 0.413351 0.067610 4.511399 -15.374611 3.407328 -0.931300 7.125000 0.000000 0.000000 8.231700 -26.534700 3.723200 
19.607172 109.475982 69.495510 178.993664 66.439638 179.766881 -3.943243 0.486383 2.002278 -24.609784 0.216591 -17.390439 0.322421 8.179357 24.646945 0.919660 -8.523161 13.139721 0.252000 3.230000 8.919900 0.457248 -1.239051 1.423982 18.604339 -5.942252 -2.011165 -5.656316 -13.545889 44.748156 -1.502998 9.178043 8.223519 -1.257500 7.108900 -20.038400 3.514986 6.985097 5.982698 -0.960466 9.705189 1.699215 -7.996459 5.362841 -0.366510 -4.027895 12.371241 -12.649130 3.877756 24.894946 36.710419 6.939800 9.724400 19.606200 -6.554109 -1.543094 -1.365750 -82.990940 7.984674 11.450268 12.670060 -18.275542 -2.293200 -1.881743 -2.267833 8.670694 22.569459 21.868250 10.443500 -7.125000 0.000000 0.000000 -5.799300 56.234400 -1.601600 5.366904 0.013748 -1.300042 81.741484 3.840802 16.326638 -18.855211 27.661188 -5.047479 0.405490 0.043047 4.600452 -15.274160 4.020679 -1.103200 7.125000 0.000000 0.000000 8.273900 -25.880800 3.870600 
16.808472 109.230648 70.462968 -179.973420 67.211078 -178.500290 -3.942721 0.296489 1.726473 -24.079963 -0.567942 -19.559146 0.241884 8.185699 24.474802 0.958811 -8.254146 13.895986 0.299100 3.516300 9.719600 0.594866 -1.258142 1.575510 20.647898 -5.404429 0.814257 -3.887262 -11.559755 37.250329 -1.320210 6.905917 11.455900 -0.640500 5.120000 -14.251200 3.884504 7.075858 6.165971 -0.844349 9.829771 1.592835 -8.049682 5.416439 -0.595663 -4.208681 12.367362 -12.710949 3.754820 24.965402 36.688467 6.918000 9.687100 19.629900 -6.537770 -1.529947 -1.397668 -83.545021 8.339647 11.055315 12.714356 -18.317094 -2.306316 -1.763011 -2.372786 9.009171 20.992447 22.795776 10.002100 -7.125000 0.000000 0.000000 -8.072700 56.937400 -2.372000 5.355431 0.028779 -1.282567 80.715619 5.374456 17.021255 -19.058962 27.912321 -5.151298 0.400319 0.044351 4.409919 -15.168167 4.019951 -1.095000 7.125000 0.000000 0.000000 8.357300 -25.882800 3.910000 
13.685478 108.731550 71.469606 -179.539050 68.376180 -177.343598 -3.915867 0.097023 1.438615 -23.924843 -0.921321 -21.984182 0.143984 8.140247 24.160388 1.028265 -8.916096 14.213690 0.108600 2.124600 5.850200 0.736547 -1.250546 1.707410 22.114407 -3.894290 3.276728 -2.437420 -9.486525 30.104238 -1.095836 5.041793 11.016689 -0.060600 1.588300 -4.369000 4.412134 7.306011 6.586557 -0.855009 10.188376 1.644177 -8.441948 5.622490 -0.549732 -4.594781 12.272604 -12.818012 3.710930 24.753009 36.445027 6.901600 9.537700 19.437900 -6.519108 -1.535188 -1.418417 -83.941359 7.964516 11.469115 13.127976 -18.884943 -2.474691 -1.772109 -2.343096 8.752825 21.495543 22.375920 10.091900 -7.125000 0.000000 0.000000 -7.311900 56.583500 -2.084100 5.323101 0.093013 -1.240616 79.746987 7.117973 17.508490 -19.391727 28.333845 -5.325128 0.400189 0.050940 4.277483 -15.204207 3.880659 -1.057300 7.125000 0.000000 0.000000 8.339100 -26.031000 3.872200 
10.237584 108.497670 72.401502 -178.236517 69.679643 -175.407024 -3.923888 -0.073637 1.160071 -22.977572 -1.978213 -23.823771 -0.105656 7.799006 22.950040 1.110200 -8.069936 16.197190 0.450700 4.306900 11.941800 0.845651 -1.256193 1.805707 23.051516 -3.523936 4.035073 -1.677567 -8.181640 25.800450 -0.708596 2.945095 5.309600 -0.356900 3.838200 -10.621800 5.378561 7.472481 7.427033 -0.706559 10.507523 1.703222 -8.809070 5.790733 -0.687108 -4.853922 12.252608 -12.714461 3.175639 24.857134 36.287737 6.687300 9.468700 19.362800 -6.467732 -1.602341 -1.437624 -84.374060 7.408883 13.467643 13.742590 -19.735649 -2.736293 -1.898850 -2.493050 7.150688 23.752214 23.791177 11.901600 -7.125000 0.000000 0.000000 -5.289700 58.700800 -1.775000 5.293339 0.144399 -1.204972 78.393657 8.948524 18.049449 -19.651251 28.667171 -5.464979 0.388041 0.035245 4.258493 -14.980946 4.304493 -1.161400 7.125000 0.000000 0.000000 8.489200 -25.582900 4.033100 
6.473838 108.378324 73.305066 -176.742997 70.764351 -173.395498 -3.988501 -0.227766 0.920358 -21.919431 -3.261666 -25.070363 -0.496901 7.073389 20.686551 1.269551 -7.216498 18.917570 0.455800 4.331000 12.009700 0.936776 -1.218696 1.846730 23.477822 -2.689509 2.822683 -1.317901 -7.531726 23.737899 -0.814092 3.463292 2.252683 -0.226200 3.061500 -8.450100 6.521685 7.446014 8.552844 -0.499094 10.628008 1.854303 -9.185699 5.860302 -0.786621 -5.120152 12.107540 -12.746872 2.822761 25.045225 36.698934 6.651700 9.388500 19.695100 -6.406748 -1.704811 -1.444572 -85.025412 6.393464 15.417047 14.650452 -20.921439 -3.162336 -1.589994 -2.478304 6.037535 21.279173 22.609868 10.059900 -7.125000 0.000000 0.000000 -7.744700 56.822700 -2.253300 5.270022 0.212936 -1.165930 76.757635 10.991091 19.042334 -19.708622 28.732178 -5.491361 0.401113 0.037064 3.671797 -15.306780 4.242697 -1.171300 7.125000 0.000000 0.000000 8.238000 -25.639000 3.900400 
